ffmpeg started on 2025-05-28 at 10:39:33
Report written to "D:\Convert\FFMetrics\reports\ssim_report-6.txt"
Log level: 32
Command line:
ffmpeg -hide_banner -nostdin -i "G:\\\xc0\xed\xe8\xec\xe5\\\xce\xed\xe3\xee\xe8\xed\xe3\xe8\\!_36_\xce\xf1\xe5\xed\xfc_2024\\JamClub\\MF \xcf\xf0\xe8\xe7\xf0\xe0\xea\\\xd2\xc2-1\\[JAMCLUB] MF Ghost - 10 (1080p)_HEVC.mkv" -i "G:\\\xc0\xed\xe8\xec\xe5\\\xce\xed\xe3\xee\xe8\xed\xe3\xe8\\!_36_\xce\xf1\xe5\xed\xfc_2024\\JamClub\\MF \xcf\xf0\xe8\xe7\xf0\xe0\xea\\\xd2\xc2-1\\[JAMCLUB] MF Ghost - 10 (1080p).mp4" -lavfi "[0:v]settb=AVTB,setpts=PTS-STARTPTS,format=pix_fmts=yuv420p10,fps=24000/1001,scale=1920:1080:flags=bicubic[main];[1:v]settb=AVTB,setpts=PTS-STARTPTS,format=pix_fmts=yuv420p,fps=24000/1001,scale=1920:1080:flags=bicubic[ref];[main][ref]ssim=eof_action=endall:stats_file='D\\:/Convert/FFMetrics/logs/ssim_logfile-6.txt'" -f null -
Input #0, matroska,webm, from 'G:\Аниме\Онгоинги\!_36_Осень_2024\JamClub\MF Призрак\ТВ-1\[JAMCLUB] MF Ghost - 10 (1080p)_HEVC.mkv':
  Metadata:
    COMPATIBLE_BRANDS: isomiso2avc1mp41
    MAJOR_BRAND     : isom
    MINOR_VERSION   : 512
    ENCODER         : Lavf61.7.100
  Duration: 00:24:02.33, start: -0.021000, bitrate: 1323 kb/s
  Stream #0:0: Video: hevc (Main 10), yuv420p10le(tv, bt709, progressive), 1920x1080 [SAR 1:1 DAR 16:9], 23.98 fps, 23.98 tbr, 1k tbn (default)
      Metadata:
        HANDLER_NAME    : VideoHandler
        VENDOR_ID       : [0][0][0][0]
        ENCODER         : Lavc61.19.100 libx265
        BPS             : 1125105
        DURATION        : 00:24:02.190708333
        NUMBER_OF_FRAMES: 34578
        NUMBER_OF_BYTES : 202827040
        _STATISTICS_WRITING_APP: mkvpropedit v66.0.0 ('Josie') 64-bit
        _STATISTICS_WRITING_DATE_UTC: 2025-05-27 10:12:53
        _STATISTICS_TAGS: BPS DURATION NUMBER_OF_FRAMES NUMBER_OF_BYTES
  Stream #0:1: Audio: aac (LC), 48000 Hz, stereo, fltp (default)
      Metadata:
        HANDLER_NAME    : SoundHandler
        VENDOR_ID       : [0][0][0][0]
        ENCODER         : Lavc61.19.100 aac
        BPS             : 194360
        DURATION        : 00:24:02.304000000
        NUMBER_OF_FRAMES: 67609
        NUMBER_OF_BYTES : 35040951
        _STATISTICS_WRITING_APP: mkvpropedit v66.0.0 ('Josie') 64-bit
        _STATISTICS_WRITING_DATE_UTC: 2025-05-27 10:12:53
        _STATISTICS_TAGS: BPS DURATION NUMBER_OF_FRAMES NUMBER_OF_BYTES
Input #1, mov,mp4,m4a,3gp,3g2,mj2, from 'G:\Аниме\Онгоинги\!_36_Осень_2024\JamClub\MF Призрак\ТВ-1\[JAMCLUB] MF Ghost - 10 (1080p).mp4':
  Metadata:
    major_brand     : isom
    minor_version   : 512
    compatible_brands: isomiso2avc1mp41
    encoder         : Lavf60.10.100
  Duration: 00:24:02.30, start: 0.000000, bitrate: 5289 kb/s
  Stream #1:0[0x1](und): Video: h264 (High) (avc1 / 0x31637661), yuv420p(tv, bt709, progressive), 1920x1080 [SAR 1:1 DAR 16:9], 5028 kb/s, 23.98 fps, 23.98 tbr, 24k tbn (default)
      Metadata:
        handler_name    : VideoHandler
        vendor_id       : [0][0][0][0]
        encoder         : Lavc60.23.100 h264_nvenc
  Stream #1:1[0x2](und): Audio: aac (LC) (mp4a / 0x6134706D), 48000 Hz, stereo, fltp, 256 kb/s (default)
      Metadata:
        handler_name    : SoundHandler
        vendor_id       : [0][0][0][0]
Stream mapping:
  Stream #0:0 (hevc) -> settb:default
  Stream #1:0 (h264) -> settb:default
  ssim:default -> Stream #0:0 (wrapped_avframe)
  Stream #0:1 -> #0:1 (aac (native) -> pcm_s16le (native))
Output #0, null, to 'pipe:':
  Metadata:
    COMPATIBLE_BRANDS: isomiso2avc1mp41
    MAJOR_BRAND     : isom
    MINOR_VERSION   : 512
    encoder         : Lavf61.7.100
  Stream #0:0: Video: wrapped_avframe, yuv420p10le(tv, bt709, progressive), 1920x1080 [SAR 1:1 DAR 16:9], q=2-31, 200 kb/s, 23.98 fps, 23.98 tbn
      Metadata:
        encoder         : Lavc61.19.100 wrapped_avframe
  Stream #0:1: Audio: pcm_s16le, 48000 Hz, stereo, s16, 1536 kb/s (default)
      Metadata:
        HANDLER_NAME    : SoundHandler
        VENDOR_ID       : [0][0][0][0]
        _STATISTICS_TAGS: BPS DURATION NUMBER_OF_FRAMES NUMBER_OF_BYTES
        BPS             : 194360
        DURATION        : 00:24:02.304000000
        NUMBER_OF_FRAMES: 67609
        NUMBER_OF_BYTES : 35040951
        _STATISTICS_WRITING_APP: mkvpropedit v66.0.0 ('Josie') 64-bit
        _STATISTICS_WRITING_DATE_UTC: 2025-05-27 10:12:53
        encoder         : Lavc61.19.100 pcm_s16le
frame=  115 fps=0.0 q=-0.0 size=N/A time=00:00:04.79 bitrate=N/A speed=9.27x    frame=  279 fps=268 q=-0.0 size=N/A time=00:00:11.63 bitrate=N/A speed=11.2x    frame=  469 fps=303 q=-0.0 size=N/A time=00:00:19.56 bitrate=N/A speed=12.7x    frame=  693 fps=335 q=-0.0 size=N/A time=00:00:28.90 bitrate=N/A speed=  14x    frame=  867 fps=336 q=-0.0 size=N/A time=00:00:36.16 bitrate=N/A speed=  14x    frame= 1064 fps=343 q=-0.0 size=N/A time=00:00:44.37 bitrate=N/A speed=14.3x    frame= 1295 fps=359 q=-0.0 size=N/A time=00:00:54.01 bitrate=N/A speed=  15x    frame= 1497 fps=363 q=-0.0 size=N/A time=00:01:02.43 bitrate=N/A speed=15.2x    frame= 1739 fps=374 q=-0.0 size=N/A time=00:01:12.53 bitrate=N/A speed=15.6x    frame= 1989 fps=385 q=-0.0 size=N/A time=00:01:22.95 bitrate=N/A speed=16.1x    frame= 2241 fps=394 q=-0.0 size=N/A time=00:01:33.46 bitrate=N/A speed=16.4x    frame= 2488 fps=401 q=-0.0 size=N/A time=00:01:43.77 bitrate=N/A speed=16.7x    frame= 2724 fps=405 q=-0.0 size=N/A time=00:01:53.61 bitrate=N/A speed=16.9x    frame= 2974 fps=411 q=-0.0 size=N/A time=00:02:04.04 bitrate=N/A speed=17.1x    frame= 3128 fps=404 q=-0.0 size=N/A time=00:02:10.46 bitrate=N/A speed=16.8x    frame= 3264 fps=395 q=-0.0 size=N/A time=00:02:16.13 bitrate=N/A speed=16.5x    frame= 3460 fps=394 q=-0.0 size=N/A time=00:02:24.31 bitrate=N/A speed=16.4x    frame= 3623 fps=389 q=-0.0 size=N/A time=00:02:31.10 bitrate=N/A speed=16.2x    frame= 3788 fps=386 q=-0.0 size=N/A time=00:02:37.99 bitrate=N/A speed=16.1x    frame= 3923 fps=380 q=-0.0 size=N/A time=00:02:43.62 bitrate=N/A speed=15.8x    frame= 4111 fps=379 q=-0.0 size=N/A time=00:02:51.46 bitrate=N/A speed=15.8x    frame= 4283 fps=377 q=-0.0 size=N/A time=00:02:58.63 bitrate=N/A speed=15.7x    frame= 4415 fps=372 q=-0.0 size=N/A time=00:03:04.14 bitrate=N/A speed=15.5x    frame= 4586 fps=370 q=-0.0 size=N/A time=00:03:11.27 bitrate=N/A speed=15.4x    frame= 4715 fps=365 q=-0.0 size=N/A time=00:03:16.65 bitrate=N/A speed=15.2x    frame= 4869 fps=363 q=-0.0 size=N/A time=00:03:23.07 bitrate=N/A speed=15.1x    frame= 5023 fps=360 q=-0.0 size=N/A time=00:03:29.50 bitrate=N/A speed=  15x    frame= 5183 fps=359 q=-0.0 size=N/A time=00:03:36.17 bitrate=N/A speed=  15x    frame= 5438 fps=363 q=-0.0 size=N/A time=00:03:46.80 bitrate=N/A speed=15.1x    frame= 5700 fps=368 q=-0.0 size=N/A time=00:03:57.73 bitrate=N/A speed=15.3x    frame= 5966 fps=373 q=-0.0 size=N/A time=00:04:08.83 bitrate=N/A speed=15.5x    frame= 6210 fps=376 q=-0.0 size=N/A time=00:04:19.00 bitrate=N/A speed=15.7x    frame= 6434 fps=378 q=-0.0 size=N/A time=00:04:28.35 bitrate=N/A speed=15.8x    frame= 6651 fps=379 q=-0.0 size=N/A time=00:04:37.40 bitrate=N/A speed=15.8x    frame= 6889 fps=381 q=-0.0 size=N/A time=00:04:47.32 bitrate=N/A speed=15.9x    frame= 7096 fps=382 q=-0.0 size=N/A time=00:04:55.96 bitrate=N/A speed=15.9x    frame= 7354 fps=385 q=-0.0 size=N/A time=00:05:06.72 bitrate=N/A speed=16.1x    frame= 7601 fps=388 q=-0.0 size=N/A time=00:05:17.02 bitrate=N/A speed=16.2x    frame= 7867 fps=391 q=-0.0 size=N/A time=00:05:28.11 bitrate=N/A speed=16.3x    frame= 8103 fps=392 q=-0.0 size=N/A time=00:05:37.96 bitrate=N/A speed=16.4x    frame= 8335 fps=394 q=-0.0 size=N/A time=00:05:47.63 bitrate=N/A speed=16.4x    frame= 8587 fps=396 q=-0.0 size=N/A time=00:05:58.14 bitrate=N/A speed=16.5x    frame= 8841 fps=398 q=-0.0 size=N/A time=00:06:08.74 bitrate=N/A speed=16.6x    frame= 9110 fps=401 q=-0.0 size=N/A time=00:06:19.96 bitrate=N/A speed=16.7x    frame= 9367 fps=403 q=-0.0 size=N/A time=00:06:30.68 bitrate=N/A speed=16.8x    frame= 9612 fps=405 q=-0.0 size=N/A time=00:06:40.90 bitrate=N/A speed=16.9x    frame= 9862 fps=407 q=-0.0 size=N/A time=00:06:51.32 bitrate=N/A speed=  17x    frame=10076 fps=407 q=-0.0 size=N/A time=00:07:00.25 bitrate=N/A speed=  17x    frame=10271 fps=406 q=-0.0 size=N/A time=00:07:08.38 bitrate=N/A speed=16.9x    frame=10477 fps=406 q=-0.0 size=N/A time=00:07:16.97 bitrate=N/A speed=16.9x    frame=10741 fps=408 q=-0.0 size=N/A time=00:07:27.98 bitrate=N/A speed=  17x    frame=10993 fps=410 q=-0.0 size=N/A time=00:07:38.49 bitrate=N/A speed=17.1x    frame=11210 fps=410 q=-0.0 size=N/A time=00:07:47.55 bitrate=N/A speed=17.1x    frame=11471 fps=412 q=-0.0 size=N/A time=00:07:58.43 bitrate=N/A speed=17.2x    frame=11738 fps=414 q=-0.0 size=N/A time=00:08:09.57 bitrate=N/A speed=17.2x    frame=12008 fps=416 q=-0.0 size=N/A time=00:08:20.83 bitrate=N/A speed=17.3x    frame=12272 fps=417 q=-0.0 size=N/A time=00:08:31.84 bitrate=N/A speed=17.4x    frame=12515 fps=418 q=-0.0 size=N/A time=00:08:41.97 bitrate=N/A speed=17.4x    frame=12756 fps=419 q=-0.0 size=N/A time=00:08:52.03 bitrate=N/A speed=17.5x    frame=13019 fps=421 q=-0.0 size=N/A time=00:09:03.00 bitrate=N/A speed=17.5x    frame=13291 fps=422 q=-0.0 size=N/A time=00:09:14.34 bitrate=N/A speed=17.6x    frame=13550 fps=424 q=-0.0 size=N/A time=00:09:25.14 bitrate=N/A speed=17.7x    frame=13813 fps=425 q=-0.0 size=N/A time=00:09:36.11 bitrate=N/A speed=17.7x    frame=14084 fps=427 q=-0.0 size=N/A time=00:09:47.42 bitrate=N/A speed=17.8x    frame=14349 fps=428 q=-0.0 size=N/A time=00:09:58.47 bitrate=N/A speed=17.8x    frame=14606 fps=429 q=-0.0 size=N/A time=00:10:09.19 bitrate=N/A speed=17.9x    frame=14867 fps=430 q=-0.0 size=N/A time=00:10:20.07 bitrate=N/A speed=17.9x    frame=15121 fps=431 q=-0.0 size=N/A time=00:10:30.67 bitrate=N/A speed=  18x    frame=15348 fps=431 q=-0.0 size=N/A time=00:10:40.13 bitrate=N/A speed=  18x    frame=15605 fps=432 q=-0.0 size=N/A time=00:10:50.85 bitrate=N/A speed=  18x    frame=15858 fps=433 q=-0.0 size=N/A time=00:11:01.41 bitrate=N/A speed=18.1x    frame=16118 fps=434 q=-0.0 size=N/A time=00:11:12.25 bitrate=N/A speed=18.1x    frame=16385 fps=435 q=-0.0 size=N/A time=00:11:23.39 bitrate=N/A speed=18.1x    frame=16657 fps=436 q=-0.0 size=N/A time=00:11:34.73 bitrate=N/A speed=18.2x    frame=16902 fps=437 q=-0.0 size=N/A time=00:11:44.95 bitrate=N/A speed=18.2x    frame=17160 fps=438 q=-0.0 size=N/A time=00:11:55.71 bitrate=N/A speed=18.3x    frame=17400 fps=438 q=-0.0 size=N/A time=00:12:05.72 bitrate=N/A speed=18.3x    frame=17637 fps=438 q=-0.0 size=N/A time=00:12:15.60 bitrate=N/A speed=18.3x    frame=17887 fps=439 q=-0.0 size=N/A time=00:12:26.03 bitrate=N/A speed=18.3x    frame=18162 fps=440 q=-0.0 size=N/A time=00:12:37.50 bitrate=N/A speed=18.4x    frame=18412 fps=441 q=-0.0 size=N/A time=00:12:47.93 bitrate=N/A speed=18.4x    frame=18677 fps=442 q=-0.0 size=N/A time=00:12:58.98 bitrate=N/A speed=18.4x    frame=18917 fps=442 q=-0.0 size=N/A time=00:13:08.99 bitrate=N/A speed=18.4x    frame=19116 fps=441 q=-0.0 size=N/A time=00:13:17.29 bitrate=N/A speed=18.4x    frame=19343 fps=441 q=-0.0 size=N/A time=00:13:26.76 bitrate=N/A speed=18.4x    frame=19591 fps=442 q=-0.0 size=N/A time=00:13:37.10 bitrate=N/A speed=18.4x    frame=19812 fps=441 q=-0.0 size=N/A time=00:13:46.32 bitrate=N/A speed=18.4x    frame=20021 fps=441 q=-0.0 size=N/A time=00:13:55.04 bitrate=N/A speed=18.4x    frame=20253 fps=441 q=-0.0 size=N/A time=00:14:04.71 bitrate=N/A speed=18.4x    frame=20476 fps=441 q=-0.0 size=N/A time=00:14:14.01 bitrate=N/A speed=18.4x    frame=20712 fps=441 q=-0.0 size=N/A time=00:14:23.86 bitrate=N/A speed=18.4x    frame=20957 fps=442 q=-0.0 size=N/A time=00:14:34.08 bitrate=N/A speed=18.4x    frame=21179 fps=442 q=-0.0 size=N/A time=00:14:43.34 bitrate=N/A speed=18.4x    frame=21435 fps=442 q=-0.0 size=N/A time=00:14:54.01 bitrate=N/A speed=18.4x    frame=21674 fps=442 q=-0.0 size=N/A time=00:15:03.98 bitrate=N/A speed=18.4x    frame=21938 fps=443 q=-0.0 size=N/A time=00:15:14.99 bitrate=N/A speed=18.5x    frame=22185 fps=443 q=-0.0 size=N/A time=00:15:25.29 bitrate=N/A speed=18.5x    frame=22463 fps=444 q=-0.0 size=N/A time=00:15:36.89 bitrate=N/A speed=18.5x    frame=22700 fps=445 q=-0.0 size=N/A time=00:15:46.77 bitrate=N/A speed=18.5x    frame=22959 fps=445 q=-0.0 size=N/A time=00:15:57.58 bitrate=N/A speed=18.6x    frame=23188 fps=445 q=-0.0 size=N/A time=00:16:07.13 bitrate=N/A speed=18.6x    frame=23431 fps=445 q=-0.0 size=N/A time=00:16:17.26 bitrate=N/A speed=18.6x    frame=23675 fps=446 q=-0.0 size=N/A time=00:16:27.44 bitrate=N/A speed=18.6x    frame=23909 fps=446 q=-0.0 size=N/A time=00:16:37.20 bitrate=N/A speed=18.6x    frame=24154 fps=446 q=-0.0 size=N/A time=00:16:47.42 bitrate=N/A speed=18.6x    frame=24385 fps=446 q=-0.0 size=N/A time=00:16:57.05 bitrate=N/A speed=18.6x    frame=24642 fps=447 q=-0.0 size=N/A time=00:17:07.77 bitrate=N/A speed=18.6x    frame=24902 fps=447 q=-0.0 size=N/A time=00:17:18.62 bitrate=N/A speed=18.6x    frame=25174 fps=448 q=-0.0 size=N/A time=00:17:29.96 bitrate=N/A speed=18.7x    frame=25428 fps=448 q=-0.0 size=N/A time=00:17:40.55 bitrate=N/A speed=18.7x    frame=25655 fps=448 q=-0.0 size=N/A time=00:17:50.02 bitrate=N/A speed=18.7x    frame=25914 fps=449 q=-0.0 size=N/A time=00:18:00.82 bitrate=N/A speed=18.7x    frame=26172 fps=449 q=-0.0 size=N/A time=00:18:11.59 bitrate=N/A speed=18.7x    frame=26448 fps=450 q=-0.0 size=N/A time=00:18:23.10 bitrate=N/A speed=18.8x    frame=26699 fps=450 q=-0.0 size=N/A time=00:18:33.57 bitrate=N/A speed=18.8x    frame=26968 fps=451 q=-0.0 size=N/A time=00:18:44.79 bitrate=N/A speed=18.8x    frame=27231 fps=451 q=-0.0 size=N/A time=00:18:55.75 bitrate=N/A speed=18.8x    frame=27473 fps=451 q=-0.0 size=N/A time=00:19:05.85 bitrate=N/A speed=18.8x    frame=27695 fps=451 q=-0.0 size=N/A time=00:19:15.11 bitrate=N/A speed=18.8x    frame=27894 fps=451 q=-0.0 size=N/A time=00:19:23.41 bitrate=N/A speed=18.8x    frame=28072 fps=450 q=-0.0 size=N/A time=00:19:30.83 bitrate=N/A speed=18.8x    frame=28292 fps=450 q=-0.0 size=N/A time=00:19:40.01 bitrate=N/A speed=18.8x    frame=28485 fps=449 q=-0.0 size=N/A time=00:19:48.06 bitrate=N/A speed=18.7x    frame=28708 fps=449 q=-0.0 size=N/A time=00:19:57.36 bitrate=N/A speed=18.7x    frame=28909 fps=448 q=-0.0 size=N/A time=00:20:05.74 bitrate=N/A speed=18.7x    frame=29087 fps=448 q=-0.0 size=N/A time=00:20:13.17 bitrate=N/A speed=18.7x    frame=29298 fps=447 q=-0.0 size=N/A time=00:20:21.97 bitrate=N/A speed=18.7x    frame=29542 fps=447 q=-0.0 size=N/A time=00:20:32.14 bitrate=N/A speed=18.7x    frame=29781 fps=448 q=-0.0 size=N/A time=00:20:42.11 bitrate=N/A speed=18.7x    frame=30047 fps=448 q=-0.0 size=N/A time=00:20:53.21 bitrate=N/A speed=18.7x    frame=30324 fps=449 q=-0.0 size=N/A time=00:21:04.76 bitrate=N/A speed=18.7x    frame=30586 fps=449 q=-0.0 size=N/A time=00:21:15.69 bitrate=N/A speed=18.7x    frame=30839 fps=450 q=-0.0 size=N/A time=00:21:26.24 bitrate=N/A speed=18.8x    frame=31051 fps=449 q=-0.0 size=N/A time=00:21:35.08 bitrate=N/A speed=18.7x    frame=31237 fps=449 q=-0.0 size=N/A time=00:21:42.84 bitrate=N/A speed=18.7x    frame=31414 fps=448 q=-0.0 size=N/A time=00:21:50.22 bitrate=N/A speed=18.7x    frame=31632 fps=448 q=-0.0 size=N/A time=00:21:59.31 bitrate=N/A speed=18.7x    frame=31862 fps=448 q=-0.0 size=N/A time=00:22:08.91 bitrate=N/A speed=18.7x    frame=32125 fps=448 q=-0.0 size=N/A time=00:22:19.88 bitrate=N/A speed=18.7x    frame=32343 fps=448 q=-0.0 size=N/A time=00:22:28.97 bitrate=N/A speed=18.7x    frame=32530 fps=447 q=-0.0 size=N/A time=00:22:36.77 bitrate=N/A speed=18.7x    frame=32760 fps=447 q=-0.0 size=N/A time=00:22:46.36 bitrate=N/A speed=18.7x    frame=32978 fps=447 q=-0.0 size=N/A time=00:22:55.45 bitrate=N/A speed=18.6x    frame=33199 fps=447 q=-0.0 size=N/A time=00:23:04.67 bitrate=N/A speed=18.6x    frame=33413 fps=447 q=-0.0 size=N/A time=00:23:13.60 bitrate=N/A speed=18.6x    frame=33618 fps=446 q=-0.0 size=N/A time=00:23:22.15 bitrate=N/A speed=18.6x    frame=33842 fps=446 q=-0.0 size=N/A time=00:23:31.49 bitrate=N/A speed=18.6x    frame=34034 fps=446 q=-0.0 size=N/A time=00:23:39.50 bitrate=N/A speed=18.6x    frame=34256 fps=446 q=-0.0 size=N/A time=00:23:48.76 bitrate=N/A speed=18.6x    frame=34439 fps=445 q=-0.0 size=N/A time=00:23:56.39 bitrate=N/A speed=18.6x    [Parsed_ssim_10 @ 000001f42ab56dc0] SSIM Y:0.994800 (22.840366) U:0.993011 (21.556102) V:0.993121 (21.625035) All:0.994222 (22.382572)
[out#0/null @ 000001f429b5f140] video:14858KiB audio:270436KiB subtitle:0KiB other streams:0KiB global headers:0KiB muxing overhead: unknown
frame=34578 fps=445 q=-0.0 Lsize=N/A time=00:24:02.19 bitrate=N/A speed=18.6x    
